<?xml version="1.0" encoding="UTF-8" standalone="no"?>
<!-- Generator: Adobe Illustrator 16.0.0, SVG Export Plug-In . SVG Version: 6.00 Build 0)  -->

<svg
   xmlns:dc="http://purl.org/dc/elements/1.1/"
   xmlns:cc="http://creativecommons.org/ns#"
   xmlns:rdf="http://www.w3.org/1999/02/22-rdf-syntax-ns#"
   xmlns:svg="http://www.w3.org/2000/svg"
   xmlns="http://www.w3.org/2000/svg"
   xmlns:xlink="http://www.w3.org/1999/xlink"
   xmlns:sodipodi="http://sodipodi.sourceforge.net/DTD/sodipodi-0.dtd"
   xmlns:inkscape="http://www.inkscape.org/namespaces/inkscape"
   version="1.1"
   id="Layer_1"
   x="0px"
   y="0px"
   width="393.38135"
   height="393.38135"
   viewBox="0 0 393.38135 393.38135"
   enable-background="new 0 0 500 500"
   xml:space="preserve"
   sodipodi:docname="magnifier.svg"
   inkscape:version="0.92.3 (2405546, 2018-03-11)"><metadata
   id="metadata47"><rdf:RDF><cc:Work
       rdf:about=""><dc:format>image/svg+xml</dc:format><dc:type
         rdf:resource="http://purl.org/dc/dcmitype/StillImage" /><dc:title></dc:title></cc:Work></rdf:RDF></metadata><defs
   id="defs45" /><sodipodi:namedview
   pagecolor="#ffffff"
   bordercolor="#666666"
   borderopacity="1"
   objecttolerance="10"
   gridtolerance="10"
   guidetolerance="10"
   inkscape:pageopacity="0"
   inkscape:pageshadow="2"
   inkscape:window-width="1920"
   inkscape:window-height="1017"
   id="namedview43"
   showgrid="false"
   fit-margin-top="0"
   fit-margin-left="0"
   fit-margin-right="0"
   fit-margin-bottom="0"
   inkscape:zoom="0.6675088"
   inkscape:cx="-119.59577"
   inkscape:cy="207.39984"
   inkscape:window-x="1912"
   inkscape:window-y="-8"
   inkscape:window-maximized="1"
   inkscape:current-layer="Layer_1" />


<image
   sodipodi:absref="C:\Users\Sefci\Documents\__PROJECTs\__bonsai\_errorPages\new/B3C5DD28.jpg"
   xlink:href="new/B3C5DD28.jpg"
   y="-7945.8076"
   x="-7996.6567"
   style="overflow:visible"
   id="image14"
   height="457"
   width="409"
   overflow="visible">
</image>

<circle
   cx="196.69067"
   cy="196.69067"
   r="196.69067"
   id="circle18"
   style="fill:#081b3e;stroke-width:1.89125657" />



<g
   id="g40"
   transform="matrix(1.8912565,0,0,1.8912565,-451.97059,-476.00847)">
	<g
   id="g36">
		<path
   d="m 363.501,384.698 c -24.598,0 -44.609,-20.012 -44.609,-44.61 0,-24.598 20.012,-44.61 44.609,-44.61 24.599,0 44.61,20.012 44.61,44.61 0,24.598 -20.011,44.61 -44.61,44.61 z m 0,-78.22 c -18.532,0 -33.609,15.077 -33.609,33.61 0,18.533 15.077,33.61 33.609,33.61 18.533,0 33.61,-15.077 33.61,-33.61 0,-18.533 -15.077,-33.61 -33.61,-33.61 z"
   id="path30"
   inkscape:connector-curvature="0"
   style="fill:#f4e900" />
		<g
   id="g34">
			<path
   d="m 303.668,411.832 c -4.18,4.181 -11.092,4.047 -15.44,-0.302 l -0.011,-0.011 c -4.349,-4.349 -4.482,-11.261 -0.302,-15.44 l 22.05,-22.05 c 4.18,-4.182 11.093,-4.046 15.44,0.301 l 0.012,0.013 c 4.347,4.347 4.482,11.26 0.301,15.439 z"
   id="path32"
   inkscape:connector-curvature="0"
   style="fill:#f4e900" />
		</g>
	</g>
	<path
   d="m 311.741,372.644 c 1.769,-1.803 24.363,-8.999 24.363,-8.999 0,0 -6.192,21.162 -9,24.361 -2.807,3.198 -17.13,-13.559 -15.363,-15.362 z"
   id="path38"
   inkscape:connector-curvature="0"
   style="fill:#f4e900" />
</g>
</svg>