<?xml version="1.0" encoding="UTF-8" standalone="no"?>
<!-- Generator: Adobe Illustrator 16.0.0, SVG Export Plug-In . SVG Version: 6.00 Build 0)  -->

<svg
   xmlns:dc="http://purl.org/dc/elements/1.1/"
   xmlns:cc="http://creativecommons.org/ns#"
   xmlns:rdf="http://www.w3.org/1999/02/22-rdf-syntax-ns#"
   xmlns:svg="http://www.w3.org/2000/svg"
   xmlns="http://www.w3.org/2000/svg"
   xmlns:xlink="http://www.w3.org/1999/xlink"
   xmlns:sodipodi="http://sodipodi.sourceforge.net/DTD/sodipodi-0.dtd"
   xmlns:inkscape="http://www.inkscape.org/namespaces/inkscape"
   version="1.1"
   id="Layer_1"
   x="0px"
   y="0px"
   width="398.25967"
   height="398.25967"
   viewBox="0 0 398.25967 398.25967"
   enable-background="new 0 0 500 500"
   xml:space="preserve"
   sodipodi:docname="offline.svg"
   inkscape:version="0.92.3 (2405546, 2018-03-11)"><metadata
   id="metadata47"><rdf:RDF><cc:Work
       rdf:about=""><dc:format>image/svg+xml</dc:format><dc:type
         rdf:resource="http://purl.org/dc/dcmitype/StillImage" /><dc:title></dc:title></cc:Work></rdf:RDF></metadata><defs
   id="defs45" /><sodipodi:namedview
   pagecolor="#ffffff"
   bordercolor="#666666"
   borderopacity="1"
   objecttolerance="10"
   gridtolerance="10"
   guidetolerance="10"
   inkscape:pageopacity="0"
   inkscape:pageshadow="2"
   inkscape:window-width="1920"
   inkscape:window-height="1017"
   id="namedview43"
   showgrid="false"
   inkscape:zoom="0.6675088"
   inkscape:cx="-127.59577"
   inkscape:cy="111.48651"
   inkscape:window-x="1912"
   inkscape:window-y="-8"
   inkscape:window-maximized="1"
   inkscape:current-layer="Layer_1"
   fit-margin-top="0"
   fit-margin-left="0"
   fit-margin-right="0"
   fit-margin-bottom="0" />
<circle
   cx="199.12984"
   cy="199.12984"
   r="199.12984"
   id="circle2"
   style="fill:#081b3e;stroke-width:1.91470993" />
<g
   id="g12"
   transform="matrix(1.9147099,0,0,1.9147099,-15.317679,-11.157014)">
	<path
   d="M 165.773,80.931 C 165.2,73.343 161.706,65.627 155.619,58.705 145.616,47.33 130.484,40.264 116.131,40.264 c -10.322,0 -28.734,3.729 -40.553,27.646 -2.217,-0.483 -4.428,-0.727 -6.613,-0.727 -9.774,0 -18.526,4.887 -23.412,13.072 -3.4,5.698 -4.396,12.202 -2.947,18.258 -12.288,8.085 -16.511,25.417 -13.986,39.401 2.777,15.386 12.559,24.945 25.528,24.945 0.201,0 0.402,-0.002 0.604,-0.006 l 62.341,-0.085 5.62,-5.619 -6.309,-6.308 -61.736,0.084 -0.147,0.002 c -0.125,0.003 -0.249,0.005 -0.373,0.005 -10.261,0 -13.15,-11.586 -13.791,-15.137 -2.031,-11.249 1.815,-25.104 11.765,-28.818 l 6.413,-2.393 -3.249,-6.025 c -2.042,-3.785 -1.856,-8.229 0.509,-12.191 2.712,-4.543 7.635,-7.257 13.169,-7.257 2.479,0 5.073,0.528 7.71,1.568 l 5.479,2.162 2.23,-5.452 c 6.743,-16.484 17.72,-25.197 31.747,-25.197 10.859,0 22.843,5.648 30.531,14.39 5.366,6.102 7.899,12.735 7.133,18.679 l -0.798,6.19 6.22,0.516 c 17.387,1.443 25.093,17.246 24.895,31.318 -0.17,12.071 -6.365,26.487 -23.25,27.495 l -7.495,0.01 -6.359,6.359 5.57,5.571 8.466,-0.012 0.317,-0.009 c 10.727,-0.586 19.726,-5.148 26.027,-13.189 5.44,-6.943 8.512,-16.197 8.651,-26.056 0.261,-18.431 -10.039,-37.947 -30.265,-42.523 z"
   id="path4"
   inkscape:connector-curvature="0"
   style="fill:#f4e900" />
	<g
   id="g10">
		<path
   d="m 151.164,173.524 c -1.941,1.94 -5.087,1.94 -7.028,0 l -26.241,-26.241 c -1.94,-1.941 -1.94,-5.087 0,-7.029 v 0 c 1.942,-1.941 5.088,-1.941 7.029,0 l 26.24,26.241 c 1.94,1.941 1.94,5.087 0,7.029 z"
   id="path6"
   inkscape:connector-curvature="0"
   style="fill:#f4e900" />
		<path
   d="m 124.923,173.524 c -1.941,1.94 -5.087,1.94 -7.029,0 v 0 c -1.94,-1.942 -1.94,-5.088 0,-7.028 l 26.241,-26.241 c 1.941,-1.941 5.087,-1.941 7.028,0 v 0 c 1.941,1.941 1.941,5.088 0,7.029 z"
   id="path8"
   inkscape:connector-curvature="0"
   style="fill:#f4e900" />
	</g>
</g>
<image
   sodipodi:absref="C:\Users\Sefci\Documents\__PROJECTs\__bonsai\_errorPages\new/B3C5DD28.jpg"
   xlink:href="new/B3C5DD28.jpg"
   y="-7947.8271"
   x="-7950"
   style="overflow:visible"
   id="image14"
   height="457"
   width="409"
   overflow="visible">
</image>






</svg>