<?xml version="1.0" encoding="UTF-8" standalone="no"?>
<!-- Generator: Adobe Illustrator 16.0.0, SVG Export Plug-In . SVG Version: 6.00 Build 0)  -->

<svg
   xmlns:dc="http://purl.org/dc/elements/1.1/"
   xmlns:cc="http://creativecommons.org/ns#"
   xmlns:rdf="http://www.w3.org/1999/02/22-rdf-syntax-ns#"
   xmlns:svg="http://www.w3.org/2000/svg"
   xmlns="http://www.w3.org/2000/svg"
   xmlns:xlink="http://www.w3.org/1999/xlink"
   xmlns:sodipodi="http://sodipodi.sourceforge.net/DTD/sodipodi-0.dtd"
   xmlns:inkscape="http://www.inkscape.org/namespaces/inkscape"
   version="1.1"
   id="Layer_1"
   x="0px"
   y="0px"
   width="392.26724"
   height="392.26724"
   viewBox="0 0 392.26724 392.26724"
   enable-background="new 0 0 500 500"
   xml:space="preserve"
   sodipodi:docname="server.svg"
   inkscape:version="0.92.3 (2405546, 2018-03-11)"><metadata
   id="metadata47"><rdf:RDF><cc:Work
       rdf:about=""><dc:format>image/svg+xml</dc:format><dc:type
         rdf:resource="http://purl.org/dc/dcmitype/StillImage" /><dc:title></dc:title></cc:Work></rdf:RDF></metadata><defs
   id="defs45" /><sodipodi:namedview
   pagecolor="#ffffff"
   bordercolor="#666666"
   borderopacity="1"
   objecttolerance="10"
   gridtolerance="10"
   guidetolerance="10"
   inkscape:pageopacity="0"
   inkscape:pageshadow="2"
   inkscape:window-width="1920"
   inkscape:window-height="1017"
   id="namedview43"
   showgrid="false"
   inkscape:zoom="0.6675088"
   inkscape:cx="-193.32855"
   inkscape:cy="9.5807455"
   inkscape:window-x="1912"
   inkscape:window-y="-8"
   inkscape:window-maximized="1"
   inkscape:current-layer="Layer_1"
   fit-margin-top="0"
   fit-margin-left="0"
   fit-margin-right="0"
   fit-margin-bottom="0" />


<image
   sodipodi:absref="C:\Users\Sefci\Documents\__PROJECTs\__bonsai\_errorPages\new/B3C5DD28.jpg"
   xlink:href="new/B3C5DD28.jpg"
   y="-7947.8271"
   x="-8007.7329"
   style="overflow:visible"
   id="image14"
   height="457"
   width="409"
   overflow="visible">
</image>
<circle
   cx="196.13362"
   cy="196.13362"
   r="196.13362"
   id="circle16"
   style="fill:#081b3e;stroke-width:1.88590014" />

<g
   id="g24"
   transform="matrix(1.8859002,0,0,1.8859002,-471.47504,-10.989139)">
	<path
   d="m 393.164,176.524 c -1.941,1.94 -5.088,1.94 -7.029,0 l -26.24,-26.241 c -1.941,-1.941 -1.941,-5.087 0,-7.029 v 0 c 1.941,-1.941 5.088,-1.941 7.029,0 l 26.24,26.241 c 1.94,1.941 1.94,5.087 0,7.029 z"
   id="path20"
   inkscape:connector-curvature="0"
   style="fill:#f4e900" />
	<path
   d="m 366.924,176.524 c -1.941,1.94 -5.088,1.94 -7.029,0 v 0 c -1.941,-1.942 -1.941,-5.088 0,-7.028 l 26.24,-26.241 c 1.941,-1.941 5.088,-1.941 7.029,0 v 0 c 1.94,1.941 1.94,5.088 0,7.029 z"
   id="path22"
   inkscape:connector-curvature="0"
   style="fill:#f4e900" />
</g>
<path
   stroke-miterlimit="10"
   d="m 318.71712,146.91351 c 0,15.90568 -12.89578,28.80146 -28.80335,28.80146 H 106.12714 c -15.909453,0 -28.805243,-12.89578 -28.805243,-28.80146 v -31.03438 c 0,-15.905676 12.89579,-28.801461 28.803363,-28.801461 h 183.78662 c 15.90946,0 28.80524,12.895785 28.80524,28.801461 z"
   id="path26"
   inkscape:connector-curvature="0"
   style="fill:none;stroke:#f4e900;stroke-width:22.63080215;stroke-miterlimit:10" />
<path
   d="M 289.91377,190.80217 H 106.12714 c -22.121613,0 -40.118753,17.99715 -40.118753,40.11876 v 31.0306 c 0,22.12161 17.99714,40.11875 40.118753,40.11875 h 100.7561 l 11.52285,-11.52285 -11.10795,-11.10795 h -101.171 c -9.642613,0 -17.487953,-7.84534 -17.487953,-17.48795 v -31.0306 c 0,-9.64261 7.84534,-17.48795 17.487953,-17.48795 h 183.78663 c 9.64261,0 17.48795,7.84534 17.48795,17.48795 v 31.0306 c 0,9.64261 -7.84534,17.48795 -17.48795,17.48795 h -19.96602 l -11.10796,11.10795 11.52285,11.52285 h 19.54924 c 22.12161,0 40.11876,-17.99714 40.11876,-40.11875 v -31.0306 c 0.002,-22.12161 -17.99526,-40.11876 -40.11687,-40.11876 z"
   id="path28"
   inkscape:connector-curvature="0"
   style="fill:#f4e900;stroke-width:1.88590014" />

</svg>