<?xml version="1.0" standalone="no"?>
<!DOCTYPE svg PUBLIC "-//W3C//DTD SVG 20010904//EN"
 "http://www.w3.org/TR/2001/REC-SVG-20010904/DTD/svg10.dtd">
<svg version="1.0" xmlns="http://www.w3.org/2000/svg"
 width="1024.000000pt" height="1024.000000pt" viewBox="0 0 1024.000000 1024.000000"
 preserveAspectRatio="xMidYMid meet">
<metadata>
Created by potrace 1.11, written by Peter Selinger 2001-2013
</metadata>
<g transform="translate(0.000000,1024.000000) scale(0.100000,-0.100000)"
fill="#000000" stroke="none">
<path d="M0 5120 l0 -5120 5120 0 5120 0 0 5120 0 5120 -5120 0 -5120 0 0
-5120z m2666 3451 c96 -20 227 -75 311 -131 26 -18 519 -503 1096 -1079 l1047
-1046 1048 1046 c576 576 1069 1061 1095 1079 84 56 215 111 311 131 594 123
1120 -403 997 -997 -20 -96 -75 -227 -131 -311 -18 -26 -503 -519 -1079 -1095
l-1046 -1048 1046 -1047 c576 -577 1061 -1070 1079 -1096 56 -84 111 -215 131
-311 123 -594 -403 -1120 -997 -997 -96 20 -227 75 -311 131 -26 18 -519 503
-1095 1079 l-1048 1046 -1047 -1046 c-577 -576 -1070 -1061 -1096 -1079 -84
-56 -215 -111 -311 -131 -594 -123 -1120 403 -997 997 20 96 75 227 131 311
18 26 503 519 1079 1096 l1046 1047 -1046 1048 c-576 576 -1061 1069 -1079
1095 -56 84 -111 215 -131 311 -123 594 403 1120 997 997z"/>
</g>
</svg>
