<?xml version="1.0" standalone="no"?>
<!DOCTYPE svg PUBLIC "-//W3C//DTD SVG 20010904//EN"
 "http://www.w3.org/TR/2001/REC-SVG-20010904/DTD/svg10.dtd">
<svg version="1.0" xmlns="http://www.w3.org/2000/svg"
 width="512.000000pt" height="512.000000pt" viewBox="0 0 512.000000 512.000000"
 preserveAspectRatio="xMidYMid meet">
<metadata>
Created by potrace 1.11, written by Peter Selinger 2001-2013
</metadata>
<g transform="translate(0.000000,512.000000) scale(0.100000,-0.100000)"
fill="#000000" stroke="none">
<path d="M0 2560 l0 -2560 2560 0 2560 0 0 2560 0 2560 -2560 0 -2560 0 0
-2560z m2870 1615 c59 -30 70 -62 91 -243 30 -266 18 -236 114 -281 72 -33
167 -91 241 -146 19 -14 33 -10 205 66 165 72 189 80 232 76 69 -6 92 -34 237
-287 136 -237 149 -276 112 -336 -11 -17 -93 -84 -181 -150 l-162 -119 7 -55
c9 -71 9 -219 0 -290 l-7 -55 165 -123 c180 -133 201 -158 194 -226 -6 -47
-238 -460 -288 -510 -21 -22 -40 -30 -77 -33 -43 -4 -67 4 -231 76 l-183 80
-82 -56 c-45 -31 -123 -76 -174 -101 -106 -51 -92 -19 -122 -284 -16 -138 -23
-173 -42 -199 -39 -56 -60 -59 -361 -59 -376 0 -358 -13 -394 291 -13 111 -25
203 -27 205 -2 3 -46 25 -98 50 -51 25 -128 70 -171 99 l-76 54 -184 -80
c-164 -72 -188 -80 -231 -76 -69 6 -92 34 -237 287 -136 237 -149 276 -112
336 11 17 92 84 181 150 l162 118 -8 46 c-9 58 -9 252 0 310 l8 45 -162 119
c-88 65 -170 133 -181 150 -37 60 -24 98 113 336 147 255 167 280 231 287 41
5 66 -3 232 -75 l187 -81 82 56 c45 31 122 76 171 99 49 24 91 46 93 48 3 2
15 95 28 205 25 216 31 237 88 271 30 19 52 20 310 20 226 0 283 -3 307 -15z"/>
<path d="M2430 3036 c-79 -22 -153 -67 -216 -130 -100 -100 -144 -207 -144
-351 0 -144 44 -251 144 -351 100 -100 207 -144 351 -144 144 0 251 44 351
144 156 156 190 387 87 591 -54 105 -186 209 -308 241 -62 17 -205 17 -265 0z"/>
</g>
</svg>
